# xmcd
#
# Track frame offsets: 
#        150
#        11622
#        20208
#        29587
#        40980
#        49840
#        60610
#        75632
#        83936
#        96191
#        104575
#        119032
#        128104
#        140058
#        157200
#        167835
#        178605
#        191601
#        202591
#        211435
#        224433
#        233524
#        244506
#        255315
#
# Disc length: 3590 seconds
#
# Revision: 1
# Processed by: cddbd v1.5.2PL0 Copyright (c) Steve Scherf et al.
# Submitted via: ExactAudioCopyFreeDBPlugin 1.0
#
DISCID=5a0e0418
DTITLE=Roger Miller - The Very Best Of Roger Miller
DYEAR=1988
DGENRE=Country
TTITLE0=King Of The Road
TTITLE1=Dang Me
TTITLE2=Chug-A-Lug
TTITLE3=Husbands And Wives
TTITLE4=You Can't Roller Skate In A Bufalo Herd
TTITLE5=Kansas City Star
TTITLE6=Me And Bobby McGee
TTITLE7=Do-Wacka-Do
TTITLE8=Little Green Apples
TTITLE9=In The Summertime
TTITLE10=Green Green Grass Of Home
TTITLE11=My Uncle Used To Love Me But She Died
TTITLE12=Walking In The Sunshine
TTITLE13=Burning Bridges
TTITLE14=Engine Engine Number Nine
TTITLE15=Please Release Me
TTITLE16=Heartaches By The Number
TTITLE17=Don't We All Have The Right to Be Wrong
TTITLE18=Endland Swings
TTITLE19=The Last Word In Lonesome Is Me
TTITLE20=Billy Bayou
TTITLE21=Honey
TTITLE22=When Two Worlds Collide
TTITLE23=My Eluseve Dreams
EXTD=
EXTT0=
EXTT1=
EXTT2=
EXTT3=
EXTT4=
EXTT5=
EXTT6=
EXTT7=
EXTT8=
EXTT9=
EXTT10=
EXTT11=
EXTT12=
EXTT13=
EXTT14=
EXTT15=
EXTT16=
EXTT17=
EXTT18=
EXTT19=
EXTT20=
EXTT21=
EXTT22=
EXTT23=
PLAYORDER=
